{"title":"Pirates Of The Caribbean - 2 (2006) HQ 1080p Blu-ray LPCM 5.1 Su","uid":15611626,"size":17498035658,"categoryP":"video","categoryS":"hd___movies","magnet":"?xt=urn:btih:f75d2db147b153809eea4fda6d40ba6630afd6f8&amp;dn=Pirates+Of+The+Caribbean+-+2+%282006%29+HQ+1080p+Blu-ray+LPCM+5.1+Su&amp;tr=udp%3A%2F%2Ftracker.leechers-paradise.org%3A6969&amp;tr=udp%3A%2F%2Fzer0day.ch%3A1337&amp;tr=udp%3A%2F%2Fopen.demonii.com%3A1337&amp;tr=udp%3A%2F%2Ftracker.coppersurfer.tk%3A6969&amp;tr=udp%3A%2F%2Fexodus.desync.com%3A6969","seeders":0,"leechers":1,"uploader":"SaM","files":3,"time":1471789740,"description":"- HollyWooD Movie-\r\n\r\nPirates of the Caribbean\r\nThe Dead Man's Chest\r\n** 2006 **\r\nHQ 1080p / Blu-ray / x264\r\nEnglish LPCM 5.1\r\nFrench AAC 5.1\r\nEnglish &amp; French subs\r\n \nhttp://extraimago.com/image/wcxX \nhttp://extraimago.com/image/wcxP \nhttp://extraimago.com/image/wcxG \nhttp://extraimago.com/image/wcxr \nhttp://extraimago.com/image/wcxp \nhttp://extraimago.com/image/wcxY \nhttp://extraimago.com/image/wcxC \nhttp://extraimago.com/image/wcxB \nhttp://extraimago.com/image/wcx4 \nhttp://extraimago.com/image/wcxe\r\n\r\nFile size : 16.2 GiB\r\nDuration : 2h 30mn\r\nOverall bit rate : 15.4 Mbps\r\n\r\nVideo\r\nFormat : AVC\r\nFormat/Info : Advanced Video Codec\r\nFormat profile :   \r\nFormat settings, CABAC : Yes\r\nFormat settings, ReFrames : 5 frames\r\nCodec ID : V_MPEG4/ISO/AVC\r\nDuration : 2h 30mn\r\nBit rate : 8 450 Kbps\r\nWidth : 1 920 pixels\r\nHeight : 800 pixels\r\nDisplay aspect ratio : 2.40:1\r\nFrame rate mode : Constant\r\nFrame rate : 23.976 (24000/1001) fps\r\ncolor space : YUV\r\nChroma subsampling : 4:2:0\r\nBit depth : 8 bits\r\nScan type : Progressive\r\nBits/(Pixel*Frame) : 0.229\r\nStream size : 8.89 GiB (55%)\r\n\r\n\r\nAudio\r\nID : 2\r\nFormat : PCM\r\nCodec ID : A_PCM/INT/LIT\r\nDuration : 2h 30mn\r\nBit rate mode : Constant\r\nBit rate : 6 912 Kbps\r\nChannel(s) : 6 channels\r\nSampling rate : 48.0 KHz\r\nFrame rate : 32.000 fps (1500 spf)\r\nBit depth : 24 bits\r\nStream size : 7.27 GiB (45%)\r\nLanguage : English\r\nDefault : Yes\r\nForced : No\r\n\r\nAudio #2\r\nID : 3\r\nFormat : AAC\r\nFormat/Info : Advanced Audio Codec\r\nFormat profile : LC\r\nCodec ID : A_AAC\r\nDuration : 2h 30mn\r\nBit rate : 192 Kbps\r\nChannel(s) : 6 channels\r\nChannel positions : Front: L C R, Side: L R, LFE\r\nSampling rate : 48.0 KHz\r\nFrame rate : 46.875 fps (1024 spf)\r\nCompression mode : Lossy\r\nDelay relative to video : 9ms\r\nStream size : 206 MiB (2%)\r\nDefault : No\r\nForced : No\r\n\r\nChapters = None\r\nSample : Included","torrent":{"xt":"urn:btih:f75d2db147b153809eea4fda6d40ba6630afd6f8","amp;dn":"Pirates+Of+The+Caribbean+-+2+%282006%29+HQ+1080p+Blu-ray+LPCM+5.1+Su","amp;tr":["udp%3A%2F%2Ftracker.leechers-paradise.org%3A6969","udp%3A%2F%2Fzer0day.ch%3A1337","udp%3A%2F%2Fopen.demonii.com%3A1337","udp%3A%2F%2Ftracker.coppersurfer.tk%3A6969","udp%3A%2F%2Fexodus.desync.com%3A6969"],"infoHash":"f75d2db147b153809eea4fda6d40ba6630afd6f8","infoHashBuffer":{"type":"Buffer","data":[247,93,45,177,71,177,83,128,158,234,79,218,109,64,186,102,48,175,214,248]},"announce":[],"urlList":[]}}